<svg xmlns="http://www.w3.org/2000/svg" width="219.13" height="35" viewBox="0 0 219.13 35"><rect class="svg__rect" x="0" y="0" width="95.43" height="35" fill="#2DA8D8"/><rect class="svg__rect" x="93.43" y="0" width="125.69999999999999" height="35" fill="#C13B3A"/><path class="svg__text" d="M19.80 22L14.22 22L14.22 13.47L19.75 13.47L19.75 14.66L15.70 14.66L15.70 17.02L19.20 17.02L19.20 18.19L15.70 18.19L15.70 20.82L19.80 20.82L19.80 22ZM25.09 22L23.36 22L26.01 17.70L23.42 13.47L25.13 13.47L26.93 16.55L28.72 13.47L30.43 13.47L27.85 17.70L30.49 22L28.76 22L26.93 18.87L25.09 22ZM36.06 22L34.57 22L34.57 13.47L37.84 13.47Q39.27 13.47 40.11 14.21Q40.95 14.96 40.95 16.18L40.95 16.18Q40.95 17.44 40.12 18.13Q39.30 18.83 37.82 18.83L37.82 18.83L36.06 18.83L36.06 22ZM36.06 14.66L36.06 17.64L37.84 17.64Q38.63 17.64 39.04 17.27Q39.46 16.90 39.46 16.19L39.46 16.19Q39.46 15.50 39.04 15.09Q38.62 14.68 37.88 14.66L37.88 14.66L36.06 14.66ZM46.71 22L45.23 22L45.23 13.47L48.23 13.47Q49.71 13.47 50.51 14.13Q51.31 14.79 51.31 16.05L51.31 16.05Q51.31 16.90 50.90 17.48Q50.49 18.06 49.75 18.37L49.75 18.37L51.66 21.92L51.66 22L50.08 22L48.37 18.71L46.71 18.71L46.71 22ZM46.71 14.66L46.71 17.52L48.24 17.52Q48.99 17.52 49.41 17.15Q49.83 16.77 49.83 16.11L49.83 16.11Q49.83 15.43 49.44 15.05Q49.05 14.68 48.28 14.66L48.28 14.66L46.71 14.66ZM61.29 22L55.71 22L55.71 13.47L61.24 13.47L61.24 14.66L57.19 14.66L57.19 17.02L60.69 17.02L60.69 18.19L57.19 18.19L57.19 20.82L61.29 20.82L61.29 22ZM65.05 19.42L65.05 19.42L66.53 19.42Q66.53 20.15 67.01 20.55Q67.49 20.95 68.39 20.95L68.39 20.95Q69.16 20.95 69.55 20.63Q69.94 20.32 69.94 19.80L69.94 19.80Q69.94 19.24 69.54 18.94Q69.15 18.63 68.12 18.32Q67.09 18.01 66.48 17.63L66.48 17.63Q65.31 16.90 65.31 15.72L65.31 15.72Q65.31 14.69 66.15 14.02Q66.99 13.35 68.33 13.35L68.33 13.35Q69.22 13.35 69.92 13.68Q70.62 14.01 71.02 14.61Q71.42 15.22 71.42 15.96L71.42 15.96L69.94 15.96Q69.94 15.29 69.52 14.91Q69.10 14.54 68.32 14.54L68.32 14.54Q67.60 14.54 67.19 14.85Q66.79 15.16 66.79 15.71L66.79 15.71Q66.79 16.18 67.23 16.50Q67.66 16.81 68.66 17.10Q69.65 17.40 70.26 17.78Q70.86 18.16 71.14 18.65Q71.42 19.13 71.42 19.79L71.42 19.79Q71.42 20.86 70.60 21.49Q69.79 22.12 68.39 22.12L68.39 22.12Q67.46 22.12 66.68 21.77Q65.91 21.43 65.48 20.83Q65.05 20.22 65.05 19.42ZM75.28 19.42L75.28 19.42L76.76 19.42Q76.76 20.15 77.24 20.55Q77.72 20.95 78.62 20.95L78.62 20.95Q79.39 20.95 79.78 20.63Q80.17 20.32 80.17 19.80L80.17 19.80Q80.17 19.24 79.77 18.94Q79.38 18.63 78.35 18.32Q77.32 18.01 76.71 17.63L76.71 17.63Q75.54 16.90 75.54 15.72L75.54 15.72Q75.54 14.69 76.38 14.02Q77.22 13.35 78.56 13.35L78.56 13.35Q79.46 13.35 80.15 13.68Q80.85 14.01 81.25 14.61Q81.65 15.22 81.65 15.96L81.65 15.96L80.17 15.96Q80.17 15.29 79.75 14.91Q79.33 14.54 78.55 14.54L78.55 14.54Q77.83 14.54 77.43 14.85Q77.02 15.16 77.02 15.71L77.02 15.71Q77.02 16.18 77.46 16.50Q77.89 16.81 78.89 17.10Q79.88 17.40 80.49 17.78Q81.09 18.16 81.37 18.65Q81.65 19.13 81.65 19.79L81.65 19.79Q81.65 20.86 80.84 21.49Q80.02 22.12 78.62 22.12L78.62 22.12Q77.69 22.12 76.92 21.77Q76.14 21.43 75.71 20.83Q75.28 20.22 75.28 19.42Z" fill="#FFFFFF"/><path class="svg__text" d="M109.82 22L107.62 22L107.62 13.60L109.57 13.60L112.53 18.45L115.41 13.60L117.36 13.60L117.39 22L115.21 22L115.18 17.55L113.02 21.17L111.97 21.17L109.82 17.67L109.82 22ZM122.12 17.80L122.12 17.80Q122.12 16.55 122.72 15.55Q123.33 14.56 124.39 14.00Q125.45 13.43 126.78 13.43L126.78 13.43Q128.11 13.43 129.18 14.00Q130.24 14.56 130.85 15.55Q131.45 16.55 131.45 17.80L131.45 17.80Q131.45 19.05 130.85 20.04Q130.24 21.04 129.18 21.60Q128.12 22.17 126.78 22.17L126.78 22.17Q125.45 22.17 124.39 21.60Q123.33 21.04 122.72 20.04Q122.12 19.05 122.12 17.80ZM124.52 17.80L124.52 17.80Q124.52 18.51 124.82 19.05Q125.12 19.60 125.64 19.90Q126.15 20.20 126.78 20.20L126.78 20.20Q127.42 20.20 127.94 19.90Q128.45 19.60 128.75 19.05Q129.05 18.51 129.05 17.80L129.05 17.80Q129.05 17.09 128.75 16.54Q128.45 16 127.94 15.70Q127.42 15.40 126.78 15.40L126.78 15.40Q126.15 15.40 125.63 15.70Q125.12 16 124.82 16.54Q124.52 17.09 124.52 17.80ZM138.51 22L136.18 22L136.18 13.60L138.14 13.60L141.85 18.07L141.85 13.60L144.17 13.60L144.17 22L142.22 22L138.51 17.52L138.51 22ZM148.91 17.80L148.91 17.80Q148.91 16.54 149.51 15.54Q150.10 14.55 151.17 13.99Q152.24 13.43 153.58 13.43L153.58 13.43Q154.76 13.43 155.70 13.83Q156.64 14.22 157.26 14.97L157.26 14.97L155.75 16.33Q154.90 15.40 153.73 15.40L153.73 15.40Q153.71 15.40 153.71 15.40L153.71 15.40Q152.63 15.40 151.97 16.06Q151.31 16.71 151.31 17.80L151.31 17.80Q151.31 18.50 151.61 19.04Q151.91 19.59 152.45 19.89Q152.99 20.20 153.68 20.20L153.68 20.20Q154.37 20.20 154.97 19.93L154.97 19.93L154.97 17.62L157.07 17.62L157.07 21.10Q156.34 21.61 155.41 21.89Q154.48 22.17 153.54 22.17L153.54 22.17Q152.22 22.17 151.16 21.61Q150.10 21.05 149.51 20.05Q148.91 19.06 148.91 17.80ZM161.63 17.80L161.63 17.80Q161.63 16.55 162.23 15.55Q162.84 14.56 163.90 14.00Q164.96 13.43 166.29 13.43L166.29 13.43Q167.62 13.43 168.69 14.00Q169.75 14.56 170.36 15.55Q170.96 16.55 170.96 17.80L170.96 17.80Q170.96 19.05 170.36 20.04Q169.75 21.04 168.69 21.60Q167.63 22.17 166.29 22.17L166.29 22.17Q164.96 22.17 163.90 21.60Q162.84 21.04 162.23 20.04Q161.63 19.05 161.63 17.80ZM164.03 17.80L164.03 17.80Q164.03 18.51 164.33 19.05Q164.63 19.60 165.15 19.90Q165.66 20.20 166.29 20.20L166.29 20.20Q166.93 20.20 167.45 19.90Q167.96 19.60 168.26 19.05Q168.56 18.51 168.56 17.80L168.56 17.80Q168.56 17.09 168.26 16.54Q167.96 16 167.45 15.70Q166.93 15.40 166.29 15.40L166.29 15.40Q165.66 15.40 165.14 15.70Q164.63 16 164.33 16.54Q164.03 17.09 164.03 17.80ZM175.26 17.80L175.26 17.80Q175.26 16.55 175.87 15.55Q176.47 14.56 177.53 14.00Q178.60 13.43 179.93 13.43L179.93 13.43Q181.26 13.43 182.32 14.00Q183.39 14.56 183.99 15.55Q184.60 16.55 184.60 17.80L184.60 17.80Q184.60 19.05 183.99 20.04Q183.39 21.04 182.32 21.60Q181.26 22.17 179.93 22.17L179.93 22.17Q178.60 22.17 177.53 21.60Q176.47 21.04 175.87 20.04Q175.26 19.05 175.26 17.80ZM177.66 17.80L177.66 17.80Q177.66 18.51 177.96 19.05Q178.26 19.60 178.78 19.90Q179.30 20.20 179.93 20.20L179.93 20.20Q180.57 20.20 181.08 19.90Q181.60 19.60 181.90 19.05Q182.20 18.51 182.20 17.80L182.20 17.80Q182.20 17.09 181.90 16.54Q181.60 16 181.08 15.70Q180.57 15.40 179.93 15.40L179.93 15.40Q179.29 15.40 178.78 15.70Q178.26 16 177.96 16.54Q177.66 17.09 177.66 17.80ZM188.74 21.24L188.74 21.24L189.52 19.49Q190.08 19.86 190.83 20.09Q191.57 20.32 192.29 20.32L192.29 20.32Q193.66 20.32 193.66 19.64L193.66 19.64Q193.66 19.28 193.27 19.11Q192.88 18.93 192.02 18.74L192.02 18.74Q191.07 18.53 190.43 18.30Q189.80 18.06 189.34 17.55Q188.89 17.03 188.89 16.16L188.89 16.16Q188.89 15.39 189.31 14.77Q189.73 14.15 190.56 13.79Q191.40 13.43 192.60 13.43L192.60 13.43Q193.43 13.43 194.23 13.62Q195.04 13.80 195.66 14.17L195.66 14.17L194.92 15.93Q193.72 15.28 192.59 15.28L192.59 15.28Q191.88 15.28 191.56 15.49Q191.24 15.70 191.24 16.04L191.24 16.04Q191.24 16.37 191.62 16.54Q192.00 16.71 192.85 16.89L192.85 16.89Q193.82 17.10 194.45 17.33Q195.07 17.56 195.54 18.07Q196.00 18.58 196.00 19.46L196.00 19.46Q196.00 20.21 195.58 20.83Q195.16 21.44 194.32 21.80Q193.48 22.17 192.28 22.17L192.28 22.17Q191.26 22.17 190.30 21.92Q189.34 21.67 188.74 21.24ZM207.32 22L200.58 22L200.58 13.60L207.17 13.60L207.17 15.44L202.93 15.44L202.93 16.85L206.66 16.85L206.66 18.63L202.93 18.63L202.93 20.17L207.32 20.17L207.32 22Z" fill="#FFFFFF" x="106.43"/></svg>